{"accessors":[{"name":"pTorus1_1_positions","componentType":5126,"count":1024,"min":[-47.4631233215332,-0.08718100190162659,-41.56939697265625],"max":[48.52348327636719,22.939077377319336,41.569400787353516],"type":"VEC3","bufferView":0,"byteOffset":0},{"name":"pTorus1_1_normals","componentType":5126,"count":1024,"min":[-0.9704480171203613,-1,-0.9640550017356873],"max":[0.9704509973526001,1,0.9640550017356873],"type":"VEC3","bufferView":0,"byteOffset":12288},{"name":"pTorus1_1_texcoords","componentType":5126,"count":1024,"min":[0,0],"max":[1,1],"type":"VEC2","bufferView":1,"byteOffset":0},{"name":"pTorus1_1_0_indices","componentType":5123,"count":2250,"min":[0],"max":[1023],"type":"SCALAR","bufferView":2,"byteOffset":0}],"asset":{"generator":"obj2gltf","version":"2.0"},"buffers":[{"name":"input","byteLength":37268,"uri":"data:application/octet-stream;base64,"}],"bufferViews":[{"name":"bufferView_0","buffer":0,"byteLength":24576,"byteOffset":0,"byteStride":12,"target":34962},{"name":"bufferView_1","buffer":0,"byteLength":8192,"byteOffset":24576,"byteStride":8,"target":34962},{"name":"bufferView_2","buffer":0,"byteLength":4500,"byteOffset":32768,"target":34963}],"materials":[{"name":"initialShadingGroup","pbrMetallicRoughness":{"baseColorFactor":[0.5,0.5,0.5,1],"metallicFactor":0,"roughnessFactor":1},"emissiveFactor":[0,0,0],"alphaMode":"OPAQUE","doubleSided":false}],"meshes":[{"name":"pTorus1_1","primitives":[{"attributes":{"POSITION":0,"NORMAL":1,"TEXCOORD_0":2},"indices":3,"material":0,"mode":4}]}],"nodes":[{"name":"pTorus1","mesh":0}],"scene":0,"scenes":[{"nodes":[0]}]}
